<?xml version="1.0" encoding="utf-8"?>
<!-- Generator: Adobe Illustrator 26.5.3, SVG Export Plug-In . SVG Version: 6.00 Build 0)  -->
<svg version="1.1" id="Layer_2_00000091005781716240760300000016380369448268134302_"
	 xmlns="http://www.w3.org/2000/svg" xmlns:xlink="http://www.w3.org/1999/xlink" x="0px" y="0px" viewBox="0 0 1491.4 458.4"
	 style="enable-background:new 0 0 1491.4 458.4;" xml:space="preserve">
<style type="text/css">
	.st0{fill:#15263B;}
</style>
<g id="Layer_1-2_00000076594982659931234440000006354202449147887515_">
	<path class="st0" d="M579.3,158.1c16,0,29-11.1,29-29.6V60.4h-51.7v12.9h37.2V127c0,10.5-3.5,18.3-14.2,18.5
		c-10.1,0.6-15.3-3.9-19.1-13.3l-9.6,8.5C555.2,151.5,564.9,158.1,579.3,158.1"/>
	<path class="st0" d="M668.6,143.9c-18.3,0-32.9-17.1-32.9-36.5s14.6-36.5,32.9-36.5s32.7,17.1,32.7,36.5S686.7,143.9,668.6,143.9
		 M668.6,157.5c26.7,0,48.7-22.5,48.7-50.2s-22-50.1-48.7-50.1s-48.9,22.5-48.9,50.2S641.7,157.5,668.6,157.5"/>
	<path class="st0" d="M789.5,63.5l-5.9,14.4c-7.8-4.6-17.3-6.6-24.3-6.6c-9.9,0-16.2,4.1-16.2,10.1c0,18.1,47.2,20.8,47.2,46.5
		c0,19.2-15.5,29.6-35.4,29.6c-12.7,0-24.7-5.4-29.5-10.9l8.9-12c4.1,3.9,11.8,9.4,22.5,9.4c11.3,0,17.9-3.7,17.9-13.6
		c0-15-47-19.9-47-47.1c-0.1-18.8,14.9-26.2,32-26.2C772.4,57.1,784.4,61.5,789.5,63.5"/>
	<polygon class="st0" points="804.7,60.2 804.7,154.6 863.9,154.6 863.9,141 819.1,141 819.1,112.2 850.6,112.2 850.6,99.5 
		819.1,99.5 819.1,72.9 856.7,72.9 856.7,60.2 	"/>
	<path class="st0" d="M896.8,109.4H890v-35h18.1c7.6,0,16.4,3.3,16,14.8C923.7,102.8,917.3,109.4,896.8,109.4 M875.2,154.8H890
		v-33.5h9c22.7,0,39.8-10.9,39.8-32.3c0-17.5-9.9-28.8-30.8-28.8h-32.9L875.2,154.8L875.2,154.8z"/>
	<polygon class="st0" points="948.1,60.2 948.1,154.6 962.4,154.6 962.4,110.4 1006.6,110.4 1006.6,154.6 1021,154.6 1021,60.2 
		1006.6,60.2 1006.6,98.4 962.4,98.4 962.4,60.2 	"/>
	<path class="st0" d="M589.6,229.2h-15.7V199c2-1.5,7.4-3.9,15.3-3.9c10.9,0,18.3,5.4,18.3,16.4C607.5,221,600.7,229.2,589.6,229.2
		 M559.2,190.8v87.4H574v-39.3h5.7c5.3,0,8.1-0.4,10.1,3.9l18.8,35.4h16.8l-23-41.3c9.4-3.3,20.6-13.6,20.6-26.5
		c0-26.3-21.4-28.8-32.3-28.8C579.7,181.6,566.3,184.8,559.2,190.8"/>
	<path class="st0" d="M680.5,267.3c-18.3,0-32.8-17.1-32.8-36.7s14.6-36.7,32.9-36.7c18.3,0,32.7,17.1,32.7,36.7
		S698.6,267.3,680.5,267.3 M680.5,280.9c26.7,0,48.7-22.4,48.7-50.2s-22-50.2-48.7-50.2s-48.9,22.5-48.9,50.2
		C631.5,258.4,653.5,280.9,680.5,280.9"/>
	<polygon class="st0" points="750.7,183.6 734.3,183.6 758.1,278.1 771.1,278.1 787.3,215.8 803.8,278.1 816.7,278.1 840.6,183.6 
		824.1,183.6 810.1,247.7 792.9,183.6 781.9,183.6 764.9,247.7 	"/>
	<polygon class="st0" points="851.9,278.5 866.3,278.3 865.5,206.6 916.9,278.1 929.2,278.1 929.6,183.6 914.2,183.6 915.2,253.6 
		865.6,183.6 851.9,183.6 	"/>
	<polygon class="st0" points="939.4,197.4 968.7,197.4 968.7,278.7 983.1,278.7 983.1,197.4 1011.7,197.4 1011.7,183.6 939.4,183.6 
			"/>
	<path class="st0" d="M1051.9,229.2h-15.7V199c2-1.5,7.4-3.9,15.3-3.9c10.9,0,18.3,5.4,18.3,16.4
		C1069.8,221,1063,229.2,1051.9,229.2 M1021.5,190.8v87.4h14.8v-39.3h5.7c5.3,0,8.1-0.4,10.1,3.9l18.8,35.4h16.8l-23-41.3
		c9.4-3.3,20.6-13.6,20.6-26.5c0-26.3-21.4-28.8-32.3-28.8C1042,181.6,1028.7,184.8,1021.5,190.8"/>
	<polygon class="st0" points="1100,183.6 1100,277.9 1159.2,277.9 1159.2,264.3 1114.4,264.3 1114.4,235.6 1145.8,235.6 
		1145.8,222.8 1114.4,222.8 1114.4,196.3 1152,196.3 1152,183.6 	"/>
	<polygon class="st0" points="1170.3,183.6 1170.3,277.9 1229.5,277.9 1229.5,264.3 1184.7,264.3 1184.7,235.6 1216.2,235.6 
		1216.2,222.8 1184.7,222.8 1184.7,196.3 1222.3,196.3 1222.3,183.6 	"/>
	<polygon class="st0" points="559.2,306.9 559.2,401.3 573.6,401.3 573.6,362.9 604.6,362.9 604.6,350.2 573.6,350.2 573.6,319.6 
		614.2,319.6 614.2,306.9 	"/>
	<path class="st0" d="M667.2,390.6c-18.3,0-32.8-17.1-32.8-36.5s14.6-36.7,32.9-36.7c18.3,0,32.7,17.1,32.7,36.7
		C700.1,373.7,685.3,390.6,667.2,390.6 M667.3,404.2c26.7,0,48.7-22.4,48.7-50.2s-22-50.2-48.7-50.2s-48.9,22.5-48.9,50.2
		C618.4,381.7,640.3,404.2,667.3,404.2"/>
	<path class="st0" d="M728.9,306.9v63.6c0,21,14.6,34.1,35.6,34.1c18.5,0,35.6-13.1,35.6-34.1v-63.6h-14.4v55.9
		c0,18.5-5.5,28.6-21,28.6s-21.4-9.9-21.4-28.6v-55.9H728.9L728.9,306.9z"/>
	<polygon class="st0" points="818.3,402 832.7,401.7 831.9,329.9 883.3,401.5 895.6,401.5 896,306.9 880.7,306.9 881.6,377.1 
		832.2,306.9 818.3,306.9 	"/>
	<path class="st0" d="M944.8,389.6h-16v-70.1h18.8c12.3,0,28,8.3,28,29.2C975.4,377.3,962,389.6,944.8,389.6 M914.4,401.5h32.1
		c20.1,0,44.2-14.4,44.2-52.9c0-36.2-25.5-41.7-42.4-41.7h-33.9L914.4,401.5L914.4,401.5z"/>
	<path class="st0" d="M1019.5,364.1l12.2-36.4l14,36.4H1019.5L1019.5,364.1z M1027,305.7l-34.3,95.7h14.4l8.6-26.3h34.2l10.1,26.3
		h14.4l-37.8-95.6h-9.5L1027,305.7L1027,305.7z"/>
	<polygon class="st0" points="1064.1,320.7 1093.4,320.7 1093.4,402.2 1107.8,402.2 1107.8,320.7 1136.4,320.7 1136.4,306.9 
		1064.1,306.9 	"/>
	<rect x="1150.8" y="306.9" class="st0" width="14.4" height="94.4"/>
	<path class="st0" d="M1227.9,390.6c-18.3,0-32.8-17.1-32.8-36.5s14.6-36.7,32.8-36.7s32.7,17.1,32.7,36.7
		C1260.7,373.7,1246.1,390.6,1227.9,390.6 M1227.9,404.2c26.7,0,48.7-22.4,48.7-50.2s-22-50.2-48.7-50.2S1179,326.1,1179,354
		S1201,404.2,1227.9,404.2"/>
	<polygon class="st0" points="1288,402 1302.4,401.7 1301.7,329.9 1353,401.5 1365.3,401.5 1365.8,306.9 1350.4,306.9 1351.4,377.1 
		1301.8,306.9 1288,306.9 	"/>
</g>
<g id="Layer_1-2_00000016764296158222922550000004337476820677821588_">
	<path class="st0" d="M307.5,318.7h21.2v-78.4c1.7-0.6,4.6-1.7,9.7-1.7c6.3,0,12,2.9,20,2.9c9.2,0,17.7-11.4,17.7-20
		c-1.7,0.6-4.6,1.1-9.7,1.1s-14.3-2.3-20-2.3s-13.2,2.3-17.7,9.2l0.6-58.4H387l-8-19.5h-71.5V318.7L307.5,318.7z M230.2,225.4h-29.8
		v-63.5c4-2.9,14.3-7.4,29.2-7.4c20.6,0,34.9,13.2,34.9,34.3C264.5,207.1,251.4,225.4,230.2,225.4 M179.3,152.2v166.5h21.2v-75h15.4
		c6.9,0,12-0.6,16,7.4l35.5,67.5H292l-42.3-79c18.3-6.3,36.6-24.6,36.6-49.2c0-50.4-41.8-56.1-54.9-56.1S193.6,139,179.3,152.2
		 M230.8,436.6c-115,0-207.8-92.7-207.8-207.8S115.7,21.7,230.8,21.7S438,114.4,438,228.9S345.2,436.6,230.8,436.6 M116.3,321.6
		c24,0,39.5-18.9,39.5-50.4v-119H84.3l-8,19.5h58.4v100.2c0,17.7-1.1,33.2-19.5,33.8c-18.3,0.6-22.3-13.7-22.9-18.3
		c8.6,0.6,15.4-4.6,15.4-12c0-6.9-4.6-12-13.2-12s-17.7,6.3-17.2,24C78,310.7,95.7,321.6,116.3,321.6 M230.8,458.4
		c126.5,0,228.9-102.4,228.9-229.5S357.3,0,230.8,0S1.3,102.4,1.3,228.9S103.7,458.4,230.8,458.4"/>
</g>
</svg>
