<?xml version="1.0" encoding="UTF-8"?><svg id="Layer_1" xmlns="http://www.w3.org/2000/svg" viewBox="0 0 595.28 197.3"><defs><style>.cls-1{fill:none;}.cls-2{fill:#ea5375;}.cls-3{fill:#fdd269;}.cls-4{fill:#1a3748;}.cls-5{fill:#2d89b2;}.cls-6{fill:#4fb796;}</style></defs><path class="cls-1" d="M105.85,94.06c2.04,0,3.7-1.66,3.7-3.7s-1.66-3.7-3.7-3.7-3.7,1.66-3.7,3.7,1.66,3.7,3.7,3.7Z"/><path class="cls-1" d="M114.01,116.66c2.04,0,3.7-1.66,3.7-3.7s-1.66-3.7-3.7-3.7-3.7,1.66-3.7,3.7,1.66,3.7,3.7,3.7Z"/><path class="cls-1" d="M122.11,154.76c2.04,0,3.7-1.66,3.7-3.7s-1.66-3.7-3.7-3.7-3.7,1.66-3.7,3.7,1.66,3.7,3.7,3.7Z"/><path class="cls-1" d="M160.47,138.85c-2.04,0-3.7,1.66-3.7,3.7s1.66,3.7,3.7,3.7,3.7-1.66,3.7-3.7-1.66-3.7-3.7-3.7Z"/><path class="cls-1" d="M314.33,83.07c-1.08-.66-2.36-.99-3.84-.99s-2.69,.33-3.75,.99c-1.06,.66-1.88,1.59-2.47,2.79-.59,1.19-.88,2.59-.88,4.18s.29,2.97,.88,4.15c.59,1.17,1.41,2.09,2.47,2.76,1.06,.66,2.31,1,3.75,1s2.76-.33,3.84-1c1.08-.66,1.91-1.58,2.5-2.76,.59-1.17,.88-2.56,.88-4.15s-.29-2.98-.88-4.18c-.59-1.19-1.42-2.12-2.5-2.79Z"/><path class="cls-1" d="M166.6,113.25c-2.04,0-3.7,1.66-3.7,3.7s1.66,3.7,3.7,3.7,3.7-1.66,3.7-3.7-1.66-3.7-3.7-3.7Z"/><circle class="cls-1" cx="140.15" cy="173.17" r="3.7"/><path class="cls-1" d="M314.42,134.74c-1.02-.66-2.24-.99-3.64-.99s-2.55,.33-3.55,.99c-1,.66-1.79,1.59-2.36,2.79-.57,1.19-.85,2.61-.85,4.24s.28,3.04,.85,4.24c.57,1.19,1.35,2.11,2.36,2.76s2.19,.97,3.55,.97,2.62-.32,3.64-.97c1.02-.64,1.82-1.56,2.39-2.76,.57-1.19,.85-2.61,.85-4.24s-.28-3.04-.85-4.24c-.57-1.19-1.36-2.12-2.39-2.79Z"/><path class="cls-1" d="M581.51,138.58c-.08-.95-.37-1.79-.88-2.53-.51-.74-1.18-1.32-2.02-1.73-.83-.42-1.78-.63-2.84-.63-1.48,0-2.74,.29-3.78,.88-1.04,.59-1.83,1.44-2.36,2.56-.22,.46-.38,.97-.51,1.51h12.39v-.06Z"/><path class="cls-2" d="M58.79,124.76c-.54-.11-1.01-.44-1.29-.93l-6.32-10.9-18.49,30.7c-.09,.15-.21,.29-.34,.42-.13,.13-.28,.22-.42,.33l5.47,.16,6.3,9.08-3.55,13.02,15.8,11.86,10.27-7.5,11.83,4.74,4.76,11.77h9.88v-38.61c-15.68-.08-28.98-10.14-33.91-24.15Z"/><g><path class="cls-3" d="M112.48,154.28c1.35,4.02,5.15,6.93,9.63,6.93,5.6,0,10.16-4.56,10.16-10.16s-4.56-10.16-10.16-10.16c-4.47,0-8.27,2.91-9.63,6.93h-6.88v-20.54h-28.98v6.46h22.52v20.54h13.34Zm9.63-6.93c2.04,0,3.7,1.66,3.7,3.7s-1.66,3.7-3.7,3.7-3.7-1.66-3.7-3.7,1.66-3.7,3.7-3.7Z"/><path class="cls-3" d="M114.01,123.12c5.6,0,10.16-4.56,10.16-10.16s-4.56-10.16-10.16-10.16c-4.47,0-8.27,2.91-9.63,6.93h-32.36v6.46h32.36c1.35,4.02,5.15,6.93,9.63,6.93Zm0-13.86c2.04,0,3.7,1.66,3.7,3.7s-1.66,3.7-3.7,3.7-3.7-1.66-3.7-3.7,1.66-3.7,3.7-3.7Z"/><path class="cls-3" d="M105.85,100.52c5.6,0,10.16-4.56,10.16-10.16s-4.56-10.16-10.16-10.16c-4.47,0-8.27,2.91-9.63,6.93h-24.41v6.46h24.41c1.35,4.02,5.15,6.93,9.63,6.93Zm0-13.86c2.04,0,3.7,1.66,3.7,3.7s-1.66,3.7-3.7,3.7-3.7-1.66-3.7-3.7,1.66-3.7,3.7-3.7Z"/><path class="cls-3" d="M166.6,106.79c-4.47,0-8.27,2.91-9.63,6.93h-24.41v6.46h24.41c1.35,4.02,5.15,6.93,9.63,6.93,5.6,0,10.16-4.56,10.16-10.16s-4.56-10.16-10.16-10.16Zm0,13.86c-2.04,0-3.7-1.66-3.7-3.7s1.66-3.7,3.7-3.7,3.7,1.66,3.7,3.7-1.66,3.7-3.7,3.7Z"/><path class="cls-3" d="M140.15,163.01c-4.47,0-8.27,2.91-9.63,6.93h-22.51v9.68h-7.64v6.46h14.1v-9.68h16.05c1.35,4.02,5.15,6.93,9.63,6.93,5.6,0,10.16-4.56,10.16-10.16s-4.56-10.16-10.16-10.16Zm0,13.86c-2.04,0-3.7-1.66-3.7-3.7s1.66-3.7,3.7-3.7,3.7,1.66,3.7,3.7-1.66,3.7-3.7,3.7Z"/><path class="cls-3" d="M160.47,132.39c-4.47,0-8.27,2.91-9.63,6.93h-9.49v-12.03h-19.14v6.46h12.68v12.03h15.95c1.35,4.02,5.15,6.93,9.63,6.93,5.6,0,10.16-4.56,10.16-10.16s-4.56-10.16-10.16-10.16Zm0,13.86c-2.04,0-3.7-1.66-3.7-3.7s1.66-3.7,3.7-3.7,3.7,1.66,3.7,3.7-1.66,3.7-3.7,3.7Z"/></g><g><path class="cls-5" d="M164.4,57.73c0-3.82-3.09-6.91-6.91-6.91s-6.91,3.09-6.91,6.91c0,1.88,.75,3.57,1.96,4.82h-13.52v13.38c1.26-1.33,3.04-2.17,5.02-2.17,3.82,0,6.91,3.09,6.91,6.91s-3.09,6.91-6.91,6.91c-1.98,0-3.76-.84-5.02-2.17v14.07h28.05c4.91,0,8.88-3.98,8.88-8.88v-28.05h-13.52c1.21-1.25,1.96-2.94,1.96-4.82Z"/><path class="cls-5" d="M210.23,9.78h-28.05v13.52c-1.25-1.21-2.94-1.96-4.82-1.96-3.82,0-6.91,3.09-6.91,6.91s3.09,6.91,6.91,6.91c1.88,0,3.57-.75,4.82-1.96v13.52h13.38c-1.33-1.26-2.17-3.04-2.17-5.02,0-3.82,3.09-6.91,6.91-6.91s6.91,3.09,6.91,6.91c0,1.98-.84,3.76-2.17,5.02h14.07V18.66c0-4.91-3.98-8.88-8.88-8.88Z"/><path class="cls-5" d="M139.02,61.19v-13.38c-1.26,1.33-3.04,2.17-5.01,2.17-3.68,0-6.81-3.02-6.92-6.71-.11-3.91,3.02-7.12,6.91-7.12,1.98,0,3.76,.84,5.02,2.17v-14.07h-48.18l.37,1.23c.94,.78,1.75,1.69,2.38,2.77l9.25,15.31,10.33,17.54s.02,.05,.03,.08h2.39c-1.36,1.39-2.14,3.36-1.93,5.5,.31,3.21,2.9,5.83,6.1,6.18,4.17,.46,7.69-2.79,7.69-6.87,0-1.88-.75-3.57-1.96-4.82h13.52Z"/></g><g><path class="cls-6" d="M58.28,83.63c-.08-.08-.17-.17-.24-.27-.42-.61-.46-1.41-.09-2.05l6.18-10.98-31.4-.31-2.84,.03c-5.88,0-11.56,8.59-13.26,11.9l-11.1,19.78c-1.28,2.18-1.33,4.1-.16,5.42,1.02,1.16,2.74,1.59,4.36,1.16l5.78-9.15c.57-.9,1.76-1.17,2.67-.61,.9,.57,1.18,1.76,.62,2.66l-5.98,9.66c-.11,.18-.26,.35-.42,.48l-1.04,1.64c-1.09,1.68-1.11,3.34-.07,4.68,1.06,1.37,2.89,2.03,4.63,1.72l5.27-8.96c.54-.92,1.73-1.23,2.65-.69,.92,.54,1.23,1.73,.69,2.65h0s-6.82,11.62-6.82,11.62c-1.2,2.49-1.22,4.54-.05,5.76,.5,.53,1.2,.88,1.97,1.07,.97,.24,2.08,.21,3.14-.12l5.67-9.94c.36-.63,1.01-.98,1.68-.98,.32,0,.64,.08,.94,.24,.93,.52,1.27,1.68,.76,2.62l-7.13,13.14c-1.45,2.66-.62,4.65,.64,5.62,1.09,.84,2.78,1.12,4.21-.06l17.22-28.6,2.81-4.66c.35-.58,.98-.94,1.66-.94h.02c.69,0,1.32,.37,1.66,.97l2.69,4.63,1.24,2.14,1.97,3.4c4.29-12.79,2.63-21.07,2.61-21.16l-3.12-13.53Z"/><path class="cls-6" d="M99.53,45.55l-4.43-7.33-4.82-7.98c-2.97-5.05-13.28-5.59-16.98-5.38l-22.67,.47c-2.53,0-4.21,.93-4.75,2.61-.48,1.47,.02,3.17,1.21,4.34l10.82,.34c1.07,.03,1.9,.92,1.88,1.99-.03,1.05-.89,1.89-1.94,1.89h-.04l-11.36-.25c-.22,0-.43-.05-.63-.12l-1.94-.06c-2.01-.09-3.44,.74-4.07,2.31-.65,1.61-.28,3.52,.87,4.86h10.4s0,0,0,0c1.07,0,1.94,.87,1.94,1.94s-.87,1.94-1.94,1.94l-13.48,.02c-2.76,.23-4.53,1.25-4.99,2.88-.45,1.58,.29,3.55,1.78,4.88l11.44-.16h.03c1.05,0,1.91,.84,1.94,1.89,.03,1.06-.81,1.95-1.87,1.98l-14.94,.52c-3.03,.1-4.32,1.83-4.52,3.4-.17,1.36,.45,2.97,2.19,3.6l4.12,.04,34.7,.34c.69,0,1.32,.37,1.66,.97,.34,.59,.35,1.32,.01,1.92l-5.77,10.24c.18-.04,.35-.08,.53-.12,12.75-2.83,18.97-8.3,19.03-8.36l10.6-10.06c.35-.33,.81-.52,1.29-.53l7.04-.17,6.33-.15-8.65-14.68Z"/></g><g><rect class="cls-4" x="196.47" y="75.02" width="9.09" height="30.18"/><path class="cls-4" d="M201.02,59.68c-1.67,0-2.99,.44-3.98,1.31-.99,.87-1.48,1.99-1.48,3.35,0,1.52,.48,2.68,1.45,3.5,.97,.82,2.3,1.22,4.01,1.22s2.98-.44,3.95-1.31,1.45-2.01,1.45-3.41c0-1.48-.47-2.62-1.42-3.44-.95-.81-2.27-1.22-3.98-1.22Z"/><path class="cls-4" d="M237.85,75.79c-1.55-.93-3.47-1.39-5.74-1.39-1.67,0-3.26,.34-4.77,1.02-1.52,.68-2.81,1.58-3.89,2.7-.19,.2-.36,.41-.54,.62l-.17-3.72h-8.64v30.18h9.09v-18.08c0-.72,.14-1.38,.43-1.99,.28-.61,.67-1.15,1.16-1.62,.49-.47,1.08-.83,1.76-1.08,.68-.25,1.42-.37,2.22-.37,1.02-.04,1.88,.14,2.59,.54s1.22,.99,1.56,1.79c.34,.8,.51,1.8,.51,3.01v17.79h9.15v-18.53c0-2.65-.4-4.9-1.19-6.74-.8-1.84-1.97-3.22-3.52-4.15Z"/><path class="cls-4" d="M272.47,93.07c-.3-.85-.76-1.6-1.36-2.24-.76-.83-1.78-1.55-3.07-2.16-1.29-.61-2.82-1.15-4.6-1.65-1.44-.42-2.58-.77-3.41-1.05-.84-.28-1.44-.54-1.82-.77-.38-.23-.67-.51-.88-.85-.21-.34-.31-.7-.31-1.08s.08-.71,.23-.99c.15-.29,.38-.53,.68-.74s.67-.36,1.11-.46c.44-.09,.94-.14,1.51-.14,.76,0,1.59,.15,2.5,.45,.91,.3,1.79,.71,2.64,1.22,.85,.51,1.62,1.09,2.3,1.73l4.77-5.34c-1.02-.95-2.19-1.76-3.5-2.44-1.31-.68-2.72-1.21-4.23-1.59-1.52-.38-3.11-.57-4.77-.57-1.55,0-3.06,.22-4.52,.65-1.46,.44-2.75,1.07-3.87,1.9-1.12,.83-2.01,1.82-2.67,2.96-.66,1.14-1,2.41-1,3.81,0,1.21,.21,2.3,.63,3.27,.42,.97,1,1.85,1.76,2.64,.83,.83,1.9,1.56,3.21,2.19s2.85,1.17,4.63,1.62c1.25,.34,2.27,.64,3.07,.91,.8,.27,1.37,.49,1.71,.68,.68,.42,1.02,1,1.02,1.76,0,.38-.08,.71-.23,1-.15,.28-.37,.53-.66,.74-.28,.21-.63,.37-1.05,.48-.42,.11-.89,.17-1.42,.17-1.33,0-2.73-.28-4.21-.82-1.48-.55-2.8-1.41-3.98-2.59l-5.51,4.78c1.33,1.59,3.12,2.86,5.37,3.81,2.26,.95,4.86,1.42,7.82,1.42,2.42,0,4.58-.43,6.48-1.28,1.89-.85,3.38-2.03,4.46-3.52,1.08-1.5,1.62-3.21,1.62-5.14,0-.99-.15-1.9-.45-2.76Z"/><path class="cls-4" d="M283.38,69.05c1.67,0,2.98-.44,3.95-1.31s1.45-2.01,1.45-3.41c0-1.48-.47-2.62-1.42-3.44-.95-.81-2.27-1.22-3.98-1.22s-2.99,.44-3.98,1.31c-.99,.87-1.48,1.99-1.48,3.35,0,1.52,.48,2.68,1.45,3.5,.97,.82,2.3,1.22,4.01,1.22Z"/><rect class="cls-4" x="278.83" y="75.02" width="9.09" height="30.18"/><path class="cls-4" d="M317.78,78.24c-.27-.3-.56-.58-.89-.86-.7-.59-1.5-1.1-2.39-1.54-.89-.44-1.86-.79-2.9-1.05s-2.13-.4-3.27-.4c-2.65,0-5.04,.67-7.16,2.02-2.12,1.34-3.79,3.18-5,5.51-1.21,2.33-1.82,5.01-1.82,8.04s.62,5.56,1.85,7.82c1.23,2.25,2.92,4.02,5.06,5.29,2.14,1.27,4.58,1.9,7.3,1.9,1.71,0,3.32-.31,4.83-.94,1.52-.63,2.79-1.45,3.84-2.47,.07-.07,.13-.15,.2-.22v1.59c0,1.74-.3,3.19-.91,4.35-.61,1.16-1.52,2.02-2.73,2.59-1.21,.57-2.79,.85-4.72,.85-1.1,0-2.18-.11-3.24-.34s-2.07-.54-3.04-.94c-.97-.4-1.85-.86-2.64-1.39l-3.18,6.37c1.52,1.14,3.5,2.07,5.94,2.79,2.44,.72,4.9,1.08,7.36,1.08s4.81-.34,6.82-1.02c2.01-.68,3.72-1.7,5.14-3.04,1.42-1.34,2.5-2.97,3.24-4.89,.74-1.91,1.11-4.1,1.11-6.57v-27.74h-8.64l-.16,3.22Zm-.95,15.94c-.59,1.17-1.42,2.09-2.5,2.76-1.08,.66-2.36,1-3.84,1s-2.69-.33-3.75-1c-1.06-.66-1.88-1.58-2.47-2.76-.59-1.17-.88-2.56-.88-4.15s.29-2.98,.88-4.18c.59-1.19,1.41-2.12,2.47-2.79,1.06-.66,2.31-.99,3.75-.99s2.76,.33,3.84,.99c1.08,.66,1.91,1.59,2.5,2.79,.59,1.19,.88,2.59,.88,4.18s-.29,2.97-.88,4.15Z"/><path class="cls-4" d="M339.08,105.21h4.49v-18.08c0-.72,.14-1.38,.43-1.99,.28-.61,.67-1.15,1.17-1.62,.49-.47,1.08-.83,1.76-1.08,.68-.25,1.42-.37,2.22-.37,1.02-.04,1.88,.14,2.59,.54s1.22,.99,1.56,1.79c.34,.8,.51,1.8,.51,3.01v17.79h9.15v-18.53c0-2.65-.4-4.9-1.19-6.74-.8-1.84-1.97-3.22-3.52-4.15-1.55-.93-3.47-1.39-5.74-1.39-1.67,0-3.26,.34-4.78,1.02-1.52,.68-2.81,1.58-3.89,2.7-.15,.16-.29,.33-.43,.49v-15.47h-8.92v42.06h4.6Z"/><polygon class="cls-4" points="388.02 75.02 382.17 75.02 382.17 67.41 373.07 67.41 373.07 75.02 367.73 75.02 367.73 82.98 373.07 82.98 373.07 105.21 382.17 105.21 382.17 82.98 388.02 82.98 388.02 75.02"/><rect class="cls-4" x="196.47" y="126.7" width="9.09" height="30.18"/><path class="cls-4" d="M201.02,111.35c-1.67,0-2.99,.44-3.98,1.31-.99,.87-1.48,1.99-1.48,3.35,0,1.52,.48,2.68,1.45,3.5,.97,.82,2.3,1.22,4.01,1.22s2.98-.44,3.95-1.31,1.45-2.01,1.45-3.41c0-1.48-.47-2.62-1.42-3.44-.95-.81-2.27-1.22-3.98-1.22Z"/><path class="cls-4" d="M237.85,127.46c-1.55-.93-3.47-1.39-5.74-1.39-1.67,0-3.26,.34-4.77,1.02-1.52,.68-2.81,1.58-3.89,2.7-.19,.2-.36,.41-.54,.62l-.17-3.72h-8.64v30.18h9.09v-18.08c0-.72,.14-1.38,.43-1.99,.28-.61,.67-1.15,1.16-1.62,.49-.47,1.08-.83,1.76-1.08,.68-.25,1.42-.37,2.22-.37,1.02-.04,1.88,.14,2.59,.54s1.22,.99,1.56,1.79c.34,.8,.51,1.8,.51,3.01v17.79h9.15v-18.53c0-2.65-.4-4.9-1.19-6.74-.8-1.84-1.97-3.22-3.52-4.15Z"/><path class="cls-4" d="M261.53,124.28c.21-.47,.54-.82,.99-1.05,.45-.23,1.02-.34,1.71-.34,.38,0,.79,.08,1.25,.23,.45,.15,.93,.36,1.42,.63l2.62-6.65c-.95-.76-2.03-1.34-3.24-1.76-1.21-.42-2.54-.63-3.98-.63-2.05,0-3.84,.46-5.37,1.39s-2.73,2.19-3.58,3.78c-.85,1.59-1.28,3.37-1.28,5.34v2.33h-4.38v7.5h4.38v21.83h9.15v-21.83h6.19v-7.5h-6.19v-1.54c0-.68,.1-1.26,.31-1.73Z"/><path class="cls-4" d="M290.26,126.07c-1.59,0-3.09,.38-4.49,1.14-1.4,.76-2.62,1.78-3.67,3.07-.27,.33-.52,.68-.75,1.04l-.19-4.62h-8.64v30.18h9.15v-15.12c0-.91,.14-1.72,.43-2.44,.28-.72,.67-1.34,1.17-1.87,.49-.53,1.1-.94,1.82-1.22s1.5-.43,2.33-.43c.76,0,1.49,.09,2.19,.26s1.26,.39,1.68,.65l2.5-10.06c-.49-.15-1.03-.28-1.62-.4-.59-.11-1.22-.17-1.9-.17Z"/><path class="cls-4" d="M317.54,130.41c-.55-.72-1.16-1.39-1.88-1.98-.91-.74-1.96-1.32-3.15-1.73-1.19-.42-2.51-.63-3.95-.63-2.61,0-4.95,.67-6.99,2.02-2.05,1.34-3.66,3.19-4.83,5.54-1.18,2.35-1.76,5.06-1.76,8.13s.59,5.67,1.76,8.04c1.17,2.37,2.76,4.23,4.75,5.57,1.99,1.34,4.25,2.02,6.79,2.02,1.36,0,2.65-.21,3.87-.62,1.21-.42,2.31-.99,3.3-1.71,.74-.54,1.36-1.17,1.93-1.83v3.65h9.21v-30.18h-9.04v3.71Zm-.74,15.59c-.57,1.19-1.36,2.11-2.39,2.76-1.02,.64-2.24,.97-3.64,.97s-2.55-.32-3.55-.97-1.79-1.56-2.36-2.76c-.57-1.19-.85-2.61-.85-4.24s.28-3.04,.85-4.24c.57-1.19,1.35-2.12,2.36-2.79,1-.66,2.19-.99,3.55-.99s2.62,.33,3.64,.99c1.02,.66,1.82,1.59,2.39,2.79,.57,1.19,.85,2.61,.85,4.24s-.28,3.04-.85,4.24Z"/><path class="cls-4" d="M355.51,142.5c-.76-.83-1.78-1.55-3.07-2.16-1.29-.61-2.82-1.15-4.6-1.65-1.44-.42-2.58-.77-3.41-1.05-.83-.28-1.44-.54-1.82-.77-.38-.23-.67-.51-.88-.85-.21-.34-.31-.7-.31-1.08s.08-.71,.23-.99c.15-.29,.38-.53,.68-.74,.3-.21,.67-.36,1.11-.46,.44-.09,.94-.14,1.51-.14,.76,0,1.59,.15,2.5,.45,.91,.3,1.79,.71,2.64,1.22,.85,.51,1.62,1.09,2.3,1.73l4.77-5.34c-1.02-.95-2.19-1.76-3.5-2.44-1.31-.68-2.72-1.21-4.23-1.59-1.52-.38-3.11-.57-4.78-.57-1.55,0-3.06,.22-4.52,.65-1.46,.44-2.75,1.07-3.87,1.9-1.12,.83-2.01,1.82-2.67,2.96-.66,1.14-.99,2.41-.99,3.81,0,1.21,.21,2.3,.63,3.27,.42,.97,1,1.85,1.76,2.64,.83,.83,1.9,1.56,3.21,2.19s2.85,1.17,4.63,1.62c1.25,.34,2.27,.64,3.07,.91,.8,.27,1.36,.49,1.71,.68,.68,.42,1.02,1,1.02,1.76,0,.38-.08,.71-.23,1-.15,.28-.37,.53-.65,.74-.28,.21-.63,.37-1.05,.48-.42,.11-.89,.17-1.42,.17-1.33,0-2.73-.28-4.21-.82-1.48-.55-2.8-1.41-3.98-2.59l-5.51,4.78c1.33,1.59,3.12,2.86,5.37,3.81,2.25,.95,4.86,1.42,7.82,1.42,2.42,0,4.58-.43,6.48-1.28,1.89-.85,3.38-2.03,4.46-3.52,1.08-1.5,1.62-3.21,1.62-5.14,0-.99-.15-1.9-.45-2.76-.3-.85-.76-1.6-1.36-2.24Z"/><polygon class="cls-4" points="374.33 119.08 365.23 119.08 365.23 126.7 359.89 126.7 359.89 134.65 365.23 134.65 365.23 156.88 374.33 156.88 374.33 134.65 380.18 134.65 380.18 126.7 374.33 126.7 374.33 119.08"/><path class="cls-4" d="M403.09,126.07c-1.59,0-3.09,.38-4.49,1.14-1.4,.76-2.62,1.78-3.67,3.07-.27,.33-.52,.68-.75,1.04l-.19-4.62h-8.64v30.18h9.15v-15.12c0-.91,.14-1.72,.43-2.44,.28-.72,.67-1.34,1.17-1.87,.49-.53,1.1-.94,1.82-1.22s1.5-.43,2.33-.43c.76,0,1.49,.09,2.19,.26s1.26,.39,1.68,.65l2.5-10.06c-.49-.15-1.03-.28-1.62-.4-.59-.11-1.22-.17-1.9-.17Z"/><path class="cls-4" d="M430.43,144.72c0,.76-.13,1.45-.4,2.07-.27,.63-.64,1.18-1.11,1.65s-1.04,.84-1.71,1.11c-.66,.26-1.39,.4-2.19,.4-1.06,0-1.97-.24-2.73-.71-.76-.47-1.33-1.15-1.71-2.02-.38-.87-.57-1.91-.57-3.13v-17.39h-9.15v18.64c0,2.54,.43,4.72,1.28,6.54,.85,1.82,2.07,3.21,3.64,4.18,1.57,.97,3.48,1.45,5.71,1.45,1.67,0,3.24-.33,4.72-.99,1.48-.66,2.75-1.55,3.81-2.67,.26-.27,.49-.55,.72-.84l.25,3.88h8.58v-30.18h-9.15v18.02Z"/><path class="cls-4" d="M457.99,134.97c1.1-.66,2.37-1,3.81-1,.95,0,1.86,.15,2.73,.46,.87,.3,1.67,.72,2.39,1.25,.72,.53,1.34,1.1,1.88,1.71l4.95-5.91c-1.33-1.71-3.12-3.03-5.37-3.98-2.26-.95-4.73-1.42-7.42-1.42-2.92,0-5.53,.68-7.84,2.05-2.31,1.37-4.14,3.23-5.49,5.6-1.34,2.37-2.02,5.05-2.02,8.04s.67,5.67,2.02,8.04c1.34,2.37,3.17,4.24,5.49,5.6,2.31,1.37,4.93,2.05,7.84,2.05,2.62,0,5.07-.47,7.36-1.42,2.29-.95,4.08-2.24,5.37-3.87l-4.89-5.97c-.61,.72-1.26,1.33-1.96,1.82-.7,.49-1.47,.86-2.3,1.11-.84,.25-1.74,.37-2.73,.37-1.4,0-2.65-.34-3.75-1.02-1.1-.68-1.96-1.61-2.59-2.78-.62-1.17-.94-2.48-.94-3.92,0-1.52,.3-2.86,.91-4.04,.61-1.17,1.46-2.09,2.56-2.76Z"/><polygon class="cls-4" points="490.28 119.08 481.19 119.08 481.19 126.7 475.84 126.7 475.84 134.65 481.19 134.65 481.19 156.88 490.28 156.88 490.28 134.65 496.14 134.65 496.14 126.7 490.28 126.7 490.28 119.08"/><path class="cls-4" d="M520.52,144.72c0,.76-.13,1.45-.4,2.07-.27,.63-.64,1.18-1.11,1.65s-1.04,.84-1.71,1.11c-.66,.26-1.39,.4-2.19,.4-1.06,0-1.97-.24-2.73-.71-.76-.47-1.33-1.15-1.71-2.02-.38-.87-.57-1.91-.57-3.13v-17.39h-9.15v18.64c0,2.54,.43,4.72,1.28,6.54,.85,1.82,2.07,3.21,3.64,4.18,1.57,.97,3.48,1.45,5.71,1.45,1.67,0,3.24-.33,4.72-.99,1.48-.66,2.75-1.55,3.81-2.67,.26-.27,.49-.55,.72-.84l.25,3.88h8.58v-30.18h-9.15v18.02Z"/><path class="cls-4" d="M555.53,126.07c-1.59,0-3.09,.38-4.49,1.14-1.4,.76-2.62,1.78-3.67,3.07-.27,.33-.52,.68-.75,1.04l-.19-4.62h-8.64v30.18h9.15v-15.12c0-.91,.14-1.72,.43-2.44,.28-.72,.67-1.34,1.17-1.87,.49-.53,1.1-.94,1.82-1.22s1.5-.43,2.33-.43c.76,0,1.49,.09,2.19,.26s1.26,.39,1.68,.65l2.5-10.06c-.49-.15-1.03-.28-1.62-.4-.59-.11-1.22-.17-1.9-.17Z"/><path class="cls-4" d="M589.92,141.3c.08-2.2-.23-4.22-.91-6.08-.68-1.86-1.67-3.47-2.96-4.83-1.29-1.37-2.81-2.42-4.58-3.18-1.76-.76-3.7-1.14-5.83-1.14-2.24,0-4.29,.39-6.17,1.17-1.87,.78-3.49,1.88-4.86,3.3-1.36,1.42-2.42,3.1-3.18,5.03-.76,1.93-1.14,4.05-1.14,6.37,0,2.99,.68,5.66,2.05,7.99,1.36,2.33,3.28,4.17,5.74,5.51,2.46,1.34,5.36,2.02,8.7,2.02,1.36,0,2.74-.16,4.12-.48,1.38-.32,2.74-.8,4.06-1.45,1.33-.64,2.58-1.48,3.75-2.5l-4.26-6.03c-1.18,.91-2.26,1.55-3.27,1.93-1,.38-2.15,.57-3.44,.57-1.86,0-3.46-.34-4.8-1.02-1.35-.68-2.37-1.64-3.07-2.87-.32-.57-.56-1.19-.74-1.85h20.72l.06-2.44Zm-20.8-2.67c.13-.54,.29-1.05,.51-1.51,.53-1.12,1.32-1.97,2.36-2.56,1.04-.59,2.3-.88,3.78-.88,1.06,0,2.01,.21,2.84,.63,.83,.42,1.51,.99,2.02,1.73,.51,.74,.8,1.58,.88,2.53v.06h-12.39Z"/></g></svg>